<mxfile host="65bd71144e">
    <diagram id="yJ0g1pVz2Jlaku8WC_zw" name="第 1 页">
        <mxGraphModel dx="552" dy="320" grid="1" gridSize="10" guides="1" tooltips="1" connect="1" arrows="1" fold="1" page="1" pageScale="1" pageWidth="827" pageHeight="1169" math="0" shadow="0">
            <root>
                <mxCell id="0"/>
                <mxCell id="1" parent="0"/>
                <mxCell id="5" style="edgeStyle=none;html=1;entryX=0.5;entryY=0;entryDx=0;entryDy=0;fontColor=#FFFFFF;strokeColor=#34495E;" edge="1" parent="1" source="3" target="4">
                    <mxGeometry relative="1" as="geometry"/>
                </mxCell>
                <mxCell id="3" value="new Vue()" style="ellipse;whiteSpace=wrap;html=1;fillColor=#34495E;strokeColor=#34495E;fontColor=#FFFFFF;" vertex="1" parent="1">
                    <mxGeometry x="210" y="30" width="120" height="50" as="geometry"/>
                </mxCell>
                <mxCell id="9" style="edgeStyle=none;html=1;entryX=0.5;entryY=0;entryDx=0;entryDy=0;fontColor=#FFFFFF;strokeColor=#34495E;" edge="1" parent="1" source="4" target="8">
                    <mxGeometry relative="1" as="geometry"/>
                </mxCell>
                <mxCell id="4" value="$mount()" style="rounded=1;whiteSpace=wrap;html=1;fontColor=#FFFFFF;strokeColor=#30C7A1;fillColor=#30C7A1;" vertex="1" parent="1">
                    <mxGeometry x="210" y="140" width="120" height="40" as="geometry"/>
                </mxCell>
                <mxCell id="6" value="initLifecycle(vm)&lt;br&gt;initEvents(vm)&lt;br&gt;initRender(vm)&lt;br&gt;callHook(vm, 'beforeCreate')&lt;br&gt;initState(vm)&lt;br&gt;callHook(vm, 'created')" style="shape=note;whiteSpace=wrap;html=1;backgroundOutline=1;darkOpacity=0.05;strokeColor=#d6b656;fillColor=#fff2cc;fontColor=#957147;" vertex="1" parent="1">
                    <mxGeometry x="440" y="60" width="180" height="100" as="geometry"/>
                </mxCell>
                <mxCell id="7" value="" style="endArrow=classic;startArrow=classic;html=1;fontColor=#957147;strokeColor=#FDB839;entryX=0;entryY=0.5;entryDx=0;entryDy=0;entryPerimeter=0;dashed=1;" edge="1" parent="1" target="6">
                    <mxGeometry width="50" height="50" relative="1" as="geometry">
                        <mxPoint x="270" y="110" as="sourcePoint"/>
                        <mxPoint x="390" y="90" as="targetPoint"/>
                    </mxGeometry>
                </mxCell>
                <mxCell id="13" style="edgeStyle=none;html=1;fontColor=#FFFFFF;strokeColor=#34495E;" edge="1" parent="1" source="8" target="12">
                    <mxGeometry relative="1" as="geometry"/>
                </mxCell>
                <mxCell id="8" value="compileToFunctions()" style="rounded=1;whiteSpace=wrap;html=1;fontColor=#FFFFFF;strokeColor=#30C7A1;fillColor=#30C7A1;" vertex="1" parent="1">
                    <mxGeometry x="190" y="230" width="160" height="40" as="geometry"/>
                </mxCell>
                <mxCell id="11" style="edgeStyle=none;html=1;entryX=1;entryY=0.5;entryDx=0;entryDy=0;fontColor=#957147;strokeColor=#FDB839;dashed=1;" edge="1" parent="1" source="10" target="8">
                    <mxGeometry relative="1" as="geometry"/>
                </mxCell>
                <mxCell id="10" value="template/el/render function" style="shape=note;whiteSpace=wrap;html=1;backgroundOutline=1;darkOpacity=0.05;strokeColor=#d6b656;fillColor=#fff2cc;size=21;fontColor=#957147;" vertex="1" parent="1">
                    <mxGeometry x="440" y="230" width="200" height="40" as="geometry"/>
                </mxCell>
                <mxCell id="21" style="edgeStyle=elbowEdgeStyle;html=1;entryX=0;entryY=0.5;entryDx=0;entryDy=0;dashed=1;fontColor=#DB565F;strokeColor=#DB565F;exitX=1;exitY=0.25;exitDx=0;exitDy=0;" edge="1" parent="1" source="12" target="14">
                    <mxGeometry relative="1" as="geometry"/>
                </mxCell>
                <mxCell id="28" style="edgeStyle=elbowEdgeStyle;html=1;entryX=0.5;entryY=0;entryDx=0;entryDy=0;fontColor=#957147;strokeColor=#34495E;" edge="1" parent="1" source="12" target="27">
                    <mxGeometry relative="1" as="geometry"/>
                </mxCell>
                <mxCell id="12" value="compile()" style="rounded=1;whiteSpace=wrap;html=1;fontColor=#FFFFFF;strokeColor=#DB565F;fillColor=#db565f;" vertex="1" parent="1">
                    <mxGeometry x="210" y="350" width="120" height="40" as="geometry"/>
                </mxCell>
                <mxCell id="17" style="edgeStyle=none;html=1;entryX=0.5;entryY=0;entryDx=0;entryDy=0;fontColor=#DB565F;strokeColor=#DB565F;dashed=1;" edge="1" parent="1" source="14" target="15">
                    <mxGeometry relative="1" as="geometry"/>
                </mxCell>
                <mxCell id="23" style="edgeStyle=elbowEdgeStyle;html=1;entryX=0;entryY=0.5;entryDx=0;entryDy=0;entryPerimeter=0;dashed=1;fontColor=#957147;strokeColor=#FDB839;" edge="1" parent="1" source="14" target="22">
                    <mxGeometry relative="1" as="geometry"/>
                </mxCell>
                <mxCell id="14" value="parse()" style="rounded=1;whiteSpace=wrap;html=1;fontColor=#DB565F;strokeColor=#DB565F;fillColor=none;strokeWidth=2;" vertex="1" parent="1">
                    <mxGeometry x="470" y="340" width="120" height="40" as="geometry"/>
                </mxCell>
                <mxCell id="18" style="edgeStyle=none;html=1;entryX=0.5;entryY=0;entryDx=0;entryDy=0;fontColor=#DB565F;strokeColor=#DB565F;dashed=1;" edge="1" parent="1" source="15" target="16">
                    <mxGeometry relative="1" as="geometry"/>
                </mxCell>
                <mxCell id="15" value="optimize()" style="rounded=1;whiteSpace=wrap;html=1;fontColor=#DB565F;strokeColor=#DB565F;fillColor=none;strokeWidth=2;" vertex="1" parent="1">
                    <mxGeometry x="470" y="420" width="120" height="40" as="geometry"/>
                </mxCell>
                <mxCell id="24" style="edgeStyle=elbowEdgeStyle;html=1;entryX=1;entryY=0.75;entryDx=0;entryDy=0;dashed=1;fontColor=#957147;strokeColor=#DB565F;" edge="1" parent="1" source="16" target="12">
                    <mxGeometry relative="1" as="geometry"/>
                </mxCell>
                <mxCell id="26" style="edgeStyle=elbowEdgeStyle;html=1;dashed=1;fontColor=#957147;strokeColor=#FDB839;" edge="1" parent="1" source="16" target="25">
                    <mxGeometry relative="1" as="geometry"/>
                </mxCell>
                <mxCell id="16" value="generate()" style="rounded=1;whiteSpace=wrap;html=1;fontColor=#DB565F;strokeColor=#DB565F;fillColor=none;strokeWidth=2;" vertex="1" parent="1">
                    <mxGeometry x="470" y="500" width="120" height="40" as="geometry"/>
                </mxCell>
                <mxCell id="22" value="AST" style="shape=note;whiteSpace=wrap;html=1;backgroundOutline=1;darkOpacity=0.05;strokeColor=#d6b656;strokeWidth=1;fillColor=#fff2cc;size=20;fontColor=#957147;" vertex="1" parent="1">
                    <mxGeometry x="690" y="300" width="80" height="40" as="geometry"/>
                </mxCell>
                <mxCell id="36" style="edgeStyle=elbowEdgeStyle;html=1;entryX=0.5;entryY=0;entryDx=0;entryDy=0;fontColor=#FFFFFF;strokeColor=#34495E;dashed=1;elbow=vertical;" edge="1" parent="1" source="25" target="35">
                    <mxGeometry relative="1" as="geometry"/>
                </mxCell>
                <mxCell id="25" value="render function" style="shape=note;whiteSpace=wrap;html=1;backgroundOutline=1;darkOpacity=0.05;strokeColor=#d6b656;fillColor=#fff2cc;size=21;fontColor=#957147;" vertex="1" parent="1">
                    <mxGeometry x="690" y="470" width="200" height="40" as="geometry"/>
                </mxCell>
                <mxCell id="30" style="edgeStyle=elbowEdgeStyle;html=1;entryX=0.5;entryY=0;entryDx=0;entryDy=0;fontColor=#957147;strokeColor=#34495E;" edge="1" parent="1" source="27" target="29">
                    <mxGeometry relative="1" as="geometry"/>
                </mxCell>
                <mxCell id="27" value="new Watcher()" style="rounded=1;whiteSpace=wrap;html=1;fontColor=#FFFFFF;strokeColor=#30C7A1;fillColor=#30C7A1;" vertex="1" parent="1">
                    <mxGeometry x="210" y="450" width="120" height="40" as="geometry"/>
                </mxCell>
                <mxCell id="32" style="edgeStyle=elbowEdgeStyle;html=1;entryX=0.5;entryY=0;entryDx=0;entryDy=0;fontColor=#957147;strokeColor=#34495E;" edge="1" parent="1" source="29" target="31">
                    <mxGeometry relative="1" as="geometry"/>
                </mxCell>
                <mxCell id="29" value="update()" style="rounded=1;whiteSpace=wrap;html=1;fontColor=#FFFFFF;strokeColor=#30C7A1;fillColor=#30C7A1;" vertex="1" parent="1">
                    <mxGeometry x="210" y="540" width="120" height="40" as="geometry"/>
                </mxCell>
                <mxCell id="34" style="edgeStyle=elbowEdgeStyle;html=1;entryX=0.5;entryY=0;entryDx=0;entryDy=0;fontColor=#957147;strokeColor=#34495E;" edge="1" parent="1" source="31" target="33">
                    <mxGeometry relative="1" as="geometry"/>
                </mxCell>
                <mxCell id="42" style="edgeStyle=elbowEdgeStyle;html=1;entryX=0;entryY=0.5;entryDx=0;entryDy=0;dashed=1;fontColor=#FFFFFF;strokeColor=#DB565F;" edge="1" parent="1" source="31" target="38">
                    <mxGeometry relative="1" as="geometry"/>
                </mxCell>
                <mxCell id="31" value="patch()" style="rounded=1;whiteSpace=wrap;html=1;fontColor=#FFFFFF;strokeColor=#DB565F;fillColor=#db565f;" vertex="1" parent="1">
                    <mxGeometry x="210" y="630" width="120" height="40" as="geometry"/>
                </mxCell>
                <mxCell id="33" value="destroy()" style="ellipse;whiteSpace=wrap;html=1;fillColor=#34495E;strokeColor=#34495E;fontColor=#FFFFFF;" vertex="1" parent="1">
                    <mxGeometry x="210" y="720" width="120" height="50" as="geometry"/>
                </mxCell>
                <mxCell id="37" style="edgeStyle=elbowEdgeStyle;html=1;entryX=1;entryY=0.25;entryDx=0;entryDy=0;dashed=1;fontColor=#FFFFFF;strokeColor=#34495E;" edge="1" parent="1" source="35" target="31">
                    <mxGeometry relative="1" as="geometry"/>
                </mxCell>
                <mxCell id="35" value="VDOM" style="ellipse;whiteSpace=wrap;html=1;aspect=fixed;fontColor=#FFFFFF;strokeColor=#B09500;strokeWidth=1;fillColor=#e3c800;" vertex="1" parent="1">
                    <mxGeometry x="680" y="585" width="80" height="80" as="geometry"/>
                </mxCell>
                <mxCell id="40" style="html=1;dashed=1;fontColor=#FFFFFF;strokeColor=#DB565F;exitX=1;exitY=0.25;exitDx=0;exitDy=0;" edge="1" parent="1" source="38">
                    <mxGeometry relative="1" as="geometry">
                        <mxPoint x="590" y="735" as="targetPoint"/>
                    </mxGeometry>
                </mxCell>
                <mxCell id="38" value="patchVnode()" style="rounded=1;whiteSpace=wrap;html=1;fontColor=#DB565F;strokeColor=#DB565F;fillColor=none;strokeWidth=2;" vertex="1" parent="1">
                    <mxGeometry x="414" y="725" width="120" height="40" as="geometry"/>
                </mxCell>
                <mxCell id="41" style="edgeStyle=none;html=1;entryX=1;entryY=0.75;entryDx=0;entryDy=0;dashed=1;fontColor=#FFFFFF;strokeColor=#DB565F;exitX=0;exitY=0.75;exitDx=0;exitDy=0;" edge="1" parent="1" source="39" target="38">
                    <mxGeometry relative="1" as="geometry"/>
                </mxCell>
                <mxCell id="44" style="edgeStyle=elbowEdgeStyle;html=1;entryX=-0.012;entryY=0.589;entryDx=0;entryDy=0;entryPerimeter=0;dashed=1;fontColor=#FFFFFF;strokeColor=#3099FD;" edge="1" parent="1" source="39" target="43">
                    <mxGeometry relative="1" as="geometry"/>
                </mxCell>
                <mxCell id="39" value="updateChildren()" style="rounded=1;whiteSpace=wrap;html=1;fontColor=#DB565F;strokeColor=#DB565F;fillColor=none;strokeWidth=2;" vertex="1" parent="1">
                    <mxGeometry x="590" y="725" width="120" height="40" as="geometry"/>
                </mxCell>
                <mxCell id="43" value="Update DOM" style="ellipse;whiteSpace=wrap;html=1;fontColor=#FFFFFF;strokeColor=#3099fd;strokeWidth=1;fillColor=#3099FD;" vertex="1" parent="1">
                    <mxGeometry x="850" y="690" width="120" height="50" as="geometry"/>
                </mxCell>
            </root>
        </mxGraphModel>
    </diagram>
</mxfile>